<?xml version="1.0" encoding="UTF-8" standalone="no"?>
<!-- Created with Inkscape (http://www.inkscape.org/) -->

<svg
   width="165mm"
   height="63.356998mm"
   viewBox="0 0 165 63.356998"
   version="1.1"
   id="svg12165"
   inkscape:version="1.3.1 (9b9bdc1480, 2023-11-25, custom)"
   sodipodi:docname="Dibujo 2.svg"
   inkscape:export-filename="Dibujo 2.pdf"
   inkscape:export-xdpi="96"
   inkscape:export-ydpi="96"
   xmlns:inkscape="http://www.inkscape.org/namespaces/inkscape"
   xmlns:sodipodi="http://sodipodi.sourceforge.net/DTD/sodipodi-0.dtd"
   xmlns="http://www.w3.org/2000/svg"
   xmlns:svg="http://www.w3.org/2000/svg">
  <sodipodi:namedview
     id="namedview12167"
     pagecolor="#959595"
     bordercolor="#000000"
     borderopacity="0.25"
     inkscape:showpageshadow="2"
     inkscape:pageopacity="0"
     inkscape:pagecheckerboard="0"
     inkscape:deskcolor="#d1d1d1"
     inkscape:document-units="mm"
     showgrid="false"
     inkscape:zoom="1.9855336"
     inkscape:cx="292.86837"
     inkscape:cy="142.27913"
     inkscape:window-width="1920"
     inkscape:window-height="1016"
     inkscape:window-x="0"
     inkscape:window-y="0"
     inkscape:window-maximized="1"
     inkscape:current-layer="layer1" />
  <defs
     id="defs12162" />
  <g
     inkscape:label="Layer 1"
     inkscape:groupmode="layer"
     id="layer1">
    <rect
       style="fill:#ffffff;fill-opacity:1;stroke:none;stroke-width:0.892548;stroke-linecap:round;stroke-linejoin:round;stroke-miterlimit:2.7;stroke-dashoffset:5.5612;paint-order:stroke markers fill"
       id="rect12221"
       width="165"
       height="63.357334"
       x="0"
       y="0" />
    <text
       xml:space="preserve"
       style="font-size:8.46667px;fill:#1a1a1a;fill-opacity:0.262745;stroke:none;stroke-width:1.051;stroke-linecap:round;stroke-linejoin:round;stroke-miterlimit:2.7;stroke-dashoffset:5.5612;paint-order:stroke markers fill"
       x="61.505211"
       y="19.444395"
       id="text15661"><tspan
         sodipodi:role="line"
         id="tspan15659"
         style="stroke-width:1.051"
         x="61.505211"
         y="19.444395" /></text>
    <path
       style="fill:#8ff0a4;fill-opacity:1;stroke:#000000;stroke-width:0.451513;stroke-linecap:round;stroke-linejoin:round;stroke-miterlimit:2.7;stroke-dasharray:none;stroke-dashoffset:15.6114;stroke-opacity:1;paint-order:stroke markers fill"
       d="M 0.39715712,0.16416923 79.875512,0.37125627 V 63.015762 H 1.0620016 Z"
       id="path5136" />
    <path
       style="fill:#6689ec;fill-opacity:1;stroke:none;stroke-width:0.493911;stroke-linecap:round;stroke-linejoin:round;stroke-miterlimit:2.7;stroke-dasharray:2.96348, 2.96348;stroke-dashoffset:0;paint-order:stroke markers fill"
       d="M 38.031236,8.9214454 24.704394,17.386861 32.310358,27.965472 20.456557,38.064123 39.375452,50.179782 34.966945,35.925666 48.945629,32.434764 35.974865,21.647259 Z"
       id="path113" />
    <path
       style="fill:#f6d32d;fill-opacity:1;stroke:none;stroke-width:0.493911;stroke-linecap:round;stroke-linejoin:round;stroke-miterlimit:2.7;stroke-dasharray:2.96348, 2.96348;stroke-dashoffset:2.71652;paint-order:stroke markers fill"
       d="M 53.045461,15.401438 38.016036,8.8813614 35.914267,21.77792 48.840888,32.412115 34.940873,35.893138 39.398102,50.345172 47.541701,39.438441 59.4645,44.357088 59.743862,17.735184 Z"
       id="path2575"
       sodipodi:nodetypes="cccccccccc" />
    <path
       style="fill:none;fill-opacity:0.322725;stroke:#e01b24;stroke-width:0.625;stroke-linecap:round;stroke-linejoin:round;stroke-miterlimit:2.7;stroke-dasharray:3.75000608, 3.75000608;stroke-dashoffset:6.31250377;stroke-opacity:1;paint-order:normal"
       d="M 38.011913,8.9537862 35.967548,21.668166 48.89475,32.477751 34.912314,35.975688 39.371862,50.29535"
       id="path7301"
       sodipodi:nodetypes="ccccc" />
    <path
       style="fill:none;fill-opacity:0.322725;stroke:#000000;stroke-width:0.493911;stroke-linecap:round;stroke-linejoin:round;stroke-miterlimit:2.7;stroke-dasharray:0.493911, 1.48173;stroke-dashoffset:0;stroke-opacity:1;paint-order:stroke markers fill"
       d="m 30.621845,24.103575 2.646467,-7.191148 18.608184,10.634634 0.386205,9.276065 6.584102,-1.516757"
       id="path7138"
       sodipodi:nodetypes="ccccc" />
    <path
       id="path4192-3-6-2"
       style="fill:#ffffff;fill-opacity:1;stroke:#000000;stroke-width:0.756185;stroke-linecap:round;stroke-linejoin:round;stroke-miterlimit:2.7;stroke-dashoffset:4.13052;paint-order:stroke markers fill"
       d="m 40.410014,50.123271 a 1.0034753,1.0103443 0 0 1 -1.003475,1.010344 1.0034753,1.0103443 0 0 1 -1.003476,-1.010344 1.0034753,1.0103443 0 0 1 1.003476,-1.010344 1.0034753,1.0103443 0 0 1 1.003475,1.010344 z" />
    <path
       id="path4192-3-6"
       style="fill:#ffffff;fill-opacity:1;stroke:#000000;stroke-width:0.756185;stroke-linecap:round;stroke-linejoin:round;stroke-miterlimit:2.7;stroke-dashoffset:4.13052;paint-order:stroke markers fill"
       d="M 39.162764,9.0575976 A 1.0034753,1.0103443 0 0 1 38.159288,10.067942 1.0034753,1.0103443 0 0 1 37.155813,9.0575976 1.0034753,1.0103443 0 0 1 38.159288,8.0472539 1.0034753,1.0103443 0 0 1 39.162764,9.0575976 Z" />
    <path
       style="fill:none;fill-opacity:0.322725;stroke:#000000;stroke-width:0.625365;stroke-linecap:round;stroke-linejoin:round;stroke-miterlimit:2.7;stroke-dasharray:3.7522, 3.7522;stroke-dashoffset:4.37756;stroke-opacity:1;paint-order:stroke markers fill"
       d="M 38.056342,9.0129528 59.635417,17.728758 59.362779,44.343218 47.535669,39.355296 39.414989,50.224047 20.532622,38.028074 32.293411,27.915042 24.549834,17.249146 Z"
       id="path7305" />
    <path
       id="path4192-3"
       style="fill:#d30000;stroke:#000000;stroke-width:0.493911;stroke-linecap:round;stroke-linejoin:round;stroke-miterlimit:2.7;stroke-dashoffset:4.13052;paint-order:stroke markers fill"
       d="m 60.258099,35.098377 a 0.65543195,0.65991856 0 0 1 -0.655433,0.659918 0.65543195,0.65991856 0 0 1 -0.655431,-0.659918 0.65543195,0.65991856 0 0 1 0.655431,-0.659919 0.65543195,0.65991856 0 0 1 0.655433,0.659919 z" />
    <path
       id="path4192"
       style="fill:#d30000;stroke:#000000;stroke-width:0.493911;stroke-linecap:round;stroke-linejoin:round;stroke-miterlimit:2.7;stroke-dashoffset:4.13052;paint-order:stroke markers fill"
       d="m 30.921436,25.055263 a 0.65543195,0.65991856 0 0 1 -0.655432,0.659919 0.65543195,0.65991856 0 0 1 -0.655433,-0.659919 0.65543195,0.65991856 0 0 1 0.655433,-0.659918 0.65543195,0.65991856 0 0 1 0.655432,0.659918 z" />
    <path
       style="fill:#8ff0a4;fill-opacity:1;stroke:#000000;stroke-width:0.451513;stroke-linecap:round;stroke-linejoin:round;stroke-miterlimit:2.7;stroke-dasharray:none;stroke-dashoffset:15.6114;stroke-opacity:1;paint-order:stroke markers fill"
       d="M 85.441156,0.16416923 164.91995,0.37125627 V 63.015762 H 86.106008 Z"
       id="path7576" />
    <path
       style="fill:#6689ec;fill-opacity:1;stroke:none;stroke-width:0.493911;stroke-linecap:round;stroke-linejoin:round;stroke-miterlimit:2.7;stroke-dasharray:2.96348, 2.96348;stroke-dashoffset:0;paint-order:stroke markers fill"
       d="m 123.07545,8.9214454 -13.32692,8.4654156 7.60601,10.578611 -11.85386,10.098651 18.91899,12.115659 -4.40853,-14.254116 13.97876,-3.490902 -12.97083,-10.787505 z"
       id="path7578" />
    <path
       style="fill:none;fill-opacity:1;stroke:#000000;stroke-width:0.625365;stroke-linecap:round;stroke-linejoin:round;stroke-miterlimit:2.7;stroke-dasharray:3.7522, 3.7522;stroke-dashoffset:6.31618;stroke-opacity:1;paint-order:stroke markers fill"
       d="m 123.05948,9.2565368 -13.46586,8.1251882 7.67402,10.606574 -11.90734,9.945464 19.16974,12.254597"
       id="path7878"
       sodipodi:nodetypes="ccccc" />
    <path
       style="fill:#f6d32d;fill-opacity:1;stroke:none;stroke-width:0.493911;stroke-linecap:round;stroke-linejoin:round;stroke-miterlimit:2.7;stroke-dasharray:2.96348, 2.96348;stroke-dashoffset:2.71652;paint-order:stroke markers fill"
       d="m 138.08975,15.401438 -15.02951,-6.5200766 -2.10178,12.8965586 12.9267,10.634195 -13.9001,3.481023 4.45726,14.452034 8.14364,-10.906731 11.92288,4.918647 0.27935,-26.621904 z"
       id="path7580"
       sodipodi:nodetypes="cccccccccc" />
    <path
       style="fill:none;fill-opacity:0.322725;stroke:#000000;stroke-width:0.625364;stroke-linecap:round;stroke-linejoin:round;stroke-miterlimit:2.7;stroke-dasharray:3.75219, 3.75219;stroke-dashoffset:6.31618;stroke-opacity:1;paint-order:stroke markers fill"
       d="m 123.05612,8.9537862 -2.04438,12.7143798 12.92728,10.809585 -13.98251,3.497937 4.45957,14.319662"
       id="path7582"
       sodipodi:nodetypes="ccccc" />
    <path
       style="fill:none;fill-opacity:1;stroke:#e01b24;stroke-width:0.625365;stroke-linecap:round;stroke-linejoin:round;stroke-miterlimit:2.7;stroke-dasharray:3.7522, 3.7522;stroke-dashoffset:6.31618;stroke-opacity:1;paint-order:normal"
       d="m 124.52851,49.920483 8.01454,-10.29027 11.995,4.432228 0.34235,-26.447778 -21.95639,-8.6496019"
       id="path7768" />
    <path
       style="fill:none;fill-opacity:0.322725;stroke:#000000;stroke-width:0.493911;stroke-linecap:round;stroke-linejoin:round;stroke-miterlimit:2.7;stroke-dasharray:0.493911, 1.48173;stroke-dashoffset:0;stroke-opacity:1;paint-order:stroke markers fill"
       d="M 114.67481,24.644845 97.8046,16.089793 105.90378,2.2685632 139.47852,7.5703039 125.52166,24.245876"
       id="path7584"
       sodipodi:nodetypes="ccccc" />
    <path
       id="path7586"
       style="fill:#ffffff;fill-opacity:1;stroke:#000000;stroke-width:0.756185;stroke-linecap:round;stroke-linejoin:round;stroke-miterlimit:2.7;stroke-dashoffset:4.13052;paint-order:stroke markers fill"
       d="m 125.45425,50.123271 a 1.0034753,1.0103443 0 0 1 -1.00349,1.010344 1.0034753,1.0103443 0 0 1 -1.00348,-1.010344 1.0034753,1.0103443 0 0 1 1.00348,-1.010344 1.0034753,1.0103443 0 0 1 1.00349,1.010344 z" />
    <path
       id="path7588"
       style="fill:#ffffff;fill-opacity:1;stroke:#000000;stroke-width:0.756185;stroke-linecap:round;stroke-linejoin:round;stroke-miterlimit:2.7;stroke-dashoffset:4.13052;paint-order:stroke markers fill"
       d="m 124.20698,9.0575976 a 1.0034753,1.0103443 0 0 1 -1.00348,1.0103444 1.0034753,1.0103443 0 0 1 -1.00347,-1.0103444 1.0034753,1.0103443 0 0 1 1.00347,-1.0103437 1.0034753,1.0103443 0 0 1 1.00348,1.0103437 z" />
    <path
       id="path7592"
       style="fill:#d30000;stroke:#000000;stroke-width:0.493911;stroke-linecap:round;stroke-linejoin:round;stroke-miterlimit:2.7;stroke-dashoffset:4.13052;paint-order:stroke markers fill"
       d="m 125.56782,24.859598 a 0.65543195,0.65991856 0 0 1 -0.65543,0.659918 0.65543195,0.65991856 0 0 1 -0.65543,-0.659918 0.65543195,0.65991856 0 0 1 0.65543,-0.659918 0.65543195,0.65991856 0 0 1 0.65543,0.659918 z" />
    <path
       id="path7594"
       style="fill:#d30000;stroke:#000000;stroke-width:0.493911;stroke-linecap:round;stroke-linejoin:round;stroke-miterlimit:2.7;stroke-dashoffset:4.13052;paint-order:stroke markers fill"
       d="m 115.9656,25.055263 a 0.65543195,0.65991856 0 0 1 -0.65543,0.659919 0.65543195,0.65991856 0 0 1 -0.65544,-0.659919 0.65543195,0.65991856 0 0 1 0.65544,-0.659918 0.65543195,0.65991856 0 0 1 0.65543,0.659918 z" />
    <text
       xml:space="preserve"
       style="font-size:3.88056px;line-height:1.25;font-family:sans-serif;stroke-width:0.264583"
       x="23.771425"
       y="48.527805"
       id="text28083"><tspan
         sodipodi:role="line"
         id="tspan28081"
         style="stroke-width:0.264583"
         x="23.771425"
         y="48.527805">$P_1$</tspan></text>
    <text
       xml:space="preserve"
       style="font-size:3.88056px;line-height:1.25;font-family:sans-serif;stroke-width:0.264583"
       x="108.3377"
       y="48.731049"
       id="text28083-2"><tspan
         sodipodi:role="line"
         id="tspan28081-8"
         style="stroke-width:0.264583"
         x="108.3377"
         y="48.731049">$P_1$</tspan></text>
    <text
       xml:space="preserve"
       style="font-size:3.88056px;line-height:1.25;font-family:sans-serif;stroke-width:0.264583"
       x="39.588863"
       y="38.860817"
       id="text28087"><tspan
         sodipodi:role="line"
         id="tspan28085"
         style="stroke-width:0.264583"
         x="39.588863"
         y="38.860817">$P_2$</tspan></text>
    <text
       xml:space="preserve"
       style="font-size:3.88056px;line-height:1.25;font-family:sans-serif;stroke-width:0.264583"
       x="60.744778"
       y="47.810066"
       id="text28091"><tspan
         sodipodi:role="line"
         id="tspan28089"
         style="stroke-width:0.264583"
         x="60.744778"
         y="47.810066">$P_3$</tspan><tspan
         sodipodi:role="line"
         style="stroke-width:0.264583"
         x="60.744778"
         y="52.660767"
         id="tspan28093" /></text>
    <text
       xml:space="preserve"
       style="font-size:3.88056px;line-height:1.25;font-family:sans-serif;stroke-width:0.264583"
       x="146.59312"
       y="48.093319"
       id="text28091-9"><tspan
         sodipodi:role="line"
         id="tspan28089-7"
         style="stroke-width:0.264583"
         x="146.59312"
         y="48.093319">$P_2$</tspan><tspan
         sodipodi:role="line"
         style="stroke-width:0.264583"
         x="146.59312"
         y="52.944019"
         id="tspan28093-3" /></text>
    <text
       xml:space="preserve"
       style="font-size:3.88056px;line-height:1.25;font-family:sans-serif;stroke-width:0.264583"
       x="124.61693"
       y="38.931557"
       id="text28087-2"><tspan
         sodipodi:role="line"
         style="stroke-width:0.264583"
         x="124.61693"
         y="38.931557"
         id="tspan28217">$P_3$</tspan></text>
  </g>
</svg>
