<?xml version="1.0" encoding="UTF-8" standalone="no"?>
<!-- Created with Inkscape (http://www.inkscape.org/) -->

<svg
   width="210mm"
   height="297mm"
   viewBox="0 0 210 297"
   version="1.1"
   id="svg12165"
   inkscape:version="1.2.2 (732a01da63, 2022-12-09, custom)"
   sodipodi:docname="Dibujo 4.svg"
   xmlns:inkscape="http://www.inkscape.org/namespaces/inkscape"
   xmlns:sodipodi="http://sodipodi.sourceforge.net/DTD/sodipodi-0.dtd"
   xmlns="http://www.w3.org/2000/svg"
   xmlns:svg="http://www.w3.org/2000/svg">
  <sodipodi:namedview
     id="namedview12167"
     pagecolor="#959595"
     bordercolor="#000000"
     borderopacity="0.25"
     inkscape:showpageshadow="2"
     inkscape:pageopacity="0"
     inkscape:pagecheckerboard="0"
     inkscape:deskcolor="#d1d1d1"
     inkscape:document-units="mm"
     showgrid="true"
     inkscape:zoom="1.4039843"
     inkscape:cx="151.35497"
     inkscape:cy="155.62852"
     inkscape:window-width="1920"
     inkscape:window-height="1016"
     inkscape:window-x="0"
     inkscape:window-y="0"
     inkscape:window-maximized="1"
     inkscape:current-layer="layer3"
     showguides="true">
    <inkscape:grid
       type="xygrid"
       id="grid23485" />
  </sodipodi:namedview>
  <defs
     id="defs12162" />
  <g
     inkscape:label="Background"
     inkscape:groupmode="layer"
     id="layer1"
     sodipodi:insensitive="true"
     inkscape:highlight-color="#ffffff">
    <rect
       style="fill:#ffffff;fill-opacity:1;stroke:none;stroke-width:1.051;stroke-linecap:round;stroke-linejoin:round;stroke-miterlimit:2.7;stroke-dashoffset:5.5612;paint-order:stroke markers fill"
       id="rect12221"
       width="165"
       height="87.849442"
       x="0"
       y="0"
       sodipodi:insensitive="true" />
  </g>
  <g
     inkscape:groupmode="layer"
     id="layer3"
     inkscape:label="Pintura - rellenos"
     style="fill:#dc0000"
     inkscape:highlight-color="#def321">
    <path
       style="fill:#dc0000;fill-opacity:0.478552;stroke:#0084c8;stroke-width:0.265001;stroke-dasharray:none;stroke-opacity:0.478431;paint-order:stroke markers fill"
       d="m 53.076325,42.828327 c -0.796895,-0.06328 -0.893907,-0.122793 -1.001948,-0.614699 -0.194652,-0.886245 -1.125452,-1.992183 -2.055719,-2.442517 -0.996475,-0.482385 -0.995593,-0.454501 -0.08986,-2.840355 2.119737,-5.583766 7.942948,-10.856772 15.210984,-13.773777 1.510533,-0.606247 1.577718,-0.616518 1.771208,-0.270769 0.498914,0.891508 1.425393,1.656586 2.408484,1.9889 l 1.034484,0.349689 0.569923,7.127584 0.569923,7.127581 -0.913839,0.445148 c -0.984192,0.47942 -1.911824,1.571181 -2.112923,2.486769 l -0.121775,0.554442 -7.193307,-0.03397 c -3.956318,-0.01868 -7.590353,-0.06549 -8.075632,-0.104029 z"
       id="path1196" />
    <path
       style="fill:#dc0000;fill-opacity:0.478552;stroke:#dc0000;stroke-width:0.265001;stroke-dasharray:none;stroke-opacity:0.47843137;paint-order:stroke markers fill"
       d="m 59.690574,60.077906 c -4.901917,-3.092149 -8.500887,-7.278045 -9.998323,-11.628872 -0.454721,-1.321199 -0.443804,-1.460989 0.125254,-1.603814 0.708344,-0.177784 1.920438,-1.489366 2.181431,-2.360483 l 0.229082,-0.764608 6.801547,0.0013 c 3.740852,7.93e-4 7.36394,0.05446 8.051309,0.119395 l 1.249762,0.118055 0.224382,0.748929 c 0.132149,0.441071 0.565338,1.080294 1.053828,1.555052 l 0.829442,0.806127 -2.278457,6.227503 c -2.269051,6.201802 -2.280359,6.226781 -2.739871,6.052074 -1.257012,-0.477914 -3.394377,0.06061 -4.173926,1.051639 l -0.34638,0.440352 z"
       id="path1198" />
    <path
       style="fill:#dc0000;fill-opacity:0.478552;stroke:#dc0000;stroke-width:0.265001;stroke-dasharray:none;stroke-opacity:0.47843137;paint-order:stroke markers fill"
       d="m 76.150314,65.671245 c -2.053802,-0.259363 -5.476883,-0.961813 -7.209748,-1.47951 l -0.848032,-0.253352 -0.1138,-1.170064 c -0.0867,-0.891464 -0.254746,-1.370026 -0.705736,-2.009852 l -0.591936,-0.839785 2.302962,-6.308984 2.302963,-6.308984 h 0.954137 c 0.58406,0 1.242677,-0.147106 1.698046,-0.379265 l 0.743902,-0.379264 7.967086,7.967086 7.967083,7.967083 -0.379262,0.743905 c -0.208597,0.409146 -0.379267,1.053883 -0.379267,1.432742 v 0.68884 l -1.648952,0.234194 c -2.522601,0.358275 -9.537755,0.41366 -12.059446,0.09521 z"
       id="path1200" />
    <path
       style="fill:#dc0000;fill-opacity:0.478552;stroke:#dc0000;stroke-width:0.265001;stroke-dasharray:none;stroke-opacity:0.47843137;paint-order:stroke markers fill"
       d="M 96.805311,62.568082 C 95.812067,61.164581 93.587289,60.63856 92.021279,61.436959 l -0.743905,0.379262 -7.967083,-7.967083 -7.967086,-7.967086 0.393118,-0.75117 c 0.317167,-0.606039 0.377441,-0.992148 0.311975,-1.998425 l -0.08114,-1.247251 12.404609,-6.906831 12.404613,-6.906832 0.85861,0.655394 c 1.44624,1.103929 3.2788,1.156783 4.72655,0.136319 l 0.81696,-0.575842 1.39049,1.359252 c 2.70613,2.645341 4.72215,5.878293 5.60305,8.985266 0.5147,1.815322 0.69161,4.984649 0.38451,6.888318 -1.10364,6.841403 -6.80135,13.229577 -15.003057,16.821171 -2.356955,1.03214 -2.188008,1.018204 -2.748182,0.226661 z"
       id="path1202" />
    <path
       style="fill:#dc0000;fill-opacity:0.478552;stroke:#dc0000;stroke-width:0.265;stroke-dasharray:none;stroke-opacity:0.478431;paint-order:stroke markers fill"
       d="m 74.626391,40.407543 c -0.463109,-0.366276 -1.135216,-0.696275 -1.554726,-0.763358 -0.406432,-0.06499 -0.739204,-0.21333 -0.739495,-0.329644 -2.65e-4,-0.116313 -0.254463,-3.349202 -0.564827,-7.184194 -0.310362,-3.834995 -0.564534,-6.992779 -0.564825,-7.0173 -2.64e-4,-0.02453 0.317482,-0.177427 0.706165,-0.339789 1.405507,-0.587115 2.204154,-1.659186 2.4139,-3.240325 0.147399,-1.111163 -0.06079,-1.038313 3.975327,-1.391058 6.495294,-0.567673 13.815044,0.537155 20.073142,3.029799 l 1.947938,0.775875 -5.3e-4,1.680173 -5.3e-4,1.680176 -12.374722,6.886953 c -6.806096,3.787825 -12.403113,6.880413 -12.437816,6.87242 -0.0347,-0.008 -0.430189,-0.304872 -0.878859,-0.659728 z"
       id="path1204" />
    <path
       style="display:inline;fill:#0084c8;fill-opacity:0.478552;stroke:#0084c8;stroke-width:0.264999;stroke-dasharray:none;stroke-opacity:0.478431;paint-order:stroke markers fill"
       d="m 53.082755,42.828057 c -0.942413,-0.06659 -0.973666,-0.08745 -1.094246,-0.730192 -0.155142,-0.826976 -1.24735,-2.059223 -2.097773,-2.36674 -0.762607,-0.275762 -0.788898,-0.490667 -0.254206,-2.077876 1.671529,-4.961856 6.347564,-9.913856 12.214989,-12.935876 2.027838,-1.044437 4.419994,-2.103842 4.750522,-2.103842 0.07732,0 0.327557,0.302522 0.556075,0.672269 0.505476,0.817877 1.537949,1.519568 2.489144,1.691679 0.388681,0.07033 0.706933,0.182036 0.707224,0.248238 2.64e-4,0.0662 0.254463,3.258087 0.564827,7.093079 0.310361,3.834996 0.564536,7.032353 0.564824,7.105238 2.65e-4,0.07289 -0.359883,0.291951 -0.800391,0.486809 -1.005988,0.445003 -1.969291,1.525844 -2.131758,2.39187 l -0.124494,0.66361 -7.187308,-0.03486 c -3.953019,-0.01918 -7.623862,-0.06571 -8.157429,-0.103406 z"
       id="path363" />
  </g>
  <g
     inkscape:groupmode="layer"
     id="layer9"
     inkscape:label="Elipses - conjuntos">
    <ellipse
       style="fill:none;fill-opacity:0.478552;stroke:#0c0c0c;stroke-width:0.600001;stroke-opacity:1;paint-order:stroke markers fill"
       id="path241"
       cx="81.749039"
       cy="43.005337"
       rx="33.434364"
       ry="23.392311" />
  </g>
  <g
     inkscape:groupmode="layer"
     id="layer6"
     inkscape:label="Aristas"
     inkscape:highlight-color="#4c4c4c">
    <path
       style="fill:none;fill-rule:evenodd;stroke:#000000;stroke-width:0.665;stroke-linecap:butt;stroke-linejoin:miter;stroke-dasharray:none;stroke-opacity:1"
       d="M 68.790766,43.410309 51.752776,43.276152"
       id="path1466"
       inkscape:connector-type="polyline"
       inkscape:connector-curvature="0"
       inkscape:connection-start="#path23549-6"
       inkscape:connection-end="#path23549-1" />
    <path
       style="fill:none;fill-rule:evenodd;stroke:#000000;stroke-width:0.665;stroke-linecap:butt;stroke-linejoin:miter;stroke-dasharray:none;stroke-opacity:1"
       d="M 71.964169,40.000592 70.736662,24.619712"
       id="path1468"
       inkscape:connector-type="polyline"
       inkscape:connector-curvature="0"
       inkscape:connection-start="#path23549-6"
       inkscape:connection-end="#path23549" />
    <path
       style="fill:none;fill-rule:evenodd;stroke:#000000;stroke-width:0.665;stroke-linecap:butt;stroke-linejoin:miter;stroke-dasharray:none;stroke-opacity:1"
       d="M 75.251533,41.761545 101.07374,27.3989"
       id="path1470"
       inkscape:connector-type="polyline"
       inkscape:connector-curvature="0"
       inkscape:connection-start="#path23549-6"
       inkscape:connection-end="#path23549-0" />
    <path
       style="fill:none;fill-rule:evenodd;stroke:#000000;stroke-width:0.665;stroke-linecap:butt;stroke-linejoin:miter;stroke-dasharray:none;stroke-opacity:1"
       d="M 74.67646,45.87546 91.283959,62.482954"
       id="path1472"
       inkscape:connector-type="polyline"
       inkscape:connector-curvature="0"
       inkscape:connection-start="#path23549-6"
       inkscape:connection-end="#path23549-9" />
    <path
       style="fill:none;fill-rule:evenodd;stroke:#000000;stroke-width:0.665;stroke-linecap:butt;stroke-linejoin:miter;stroke-dasharray:none;stroke-opacity:1"
       d="M 71.053092,46.67508 64.758557,63.867538"
       id="path1474"
       inkscape:connector-type="polyline"
       inkscape:connector-curvature="0"
       inkscape:connection-start="#path23549-6" />
    <path
       style="fill:#ff4141;fill-opacity:1;fill-rule:evenodd;stroke:#fe8c8c;stroke-width:0.965001;stroke-linecap:butt;stroke-linejoin:miter;stroke-dasharray:none;stroke-opacity:1"
       d="m 69.422798,51.127977 -1.749864,4.779447"
       id="path2416"
       inkscape:connector-type="polyline"
       inkscape:connector-curvature="0" />
  </g>
  <g
     inkscape:groupmode="layer"
     id="layer7"
     inkscape:label="Vertices"
     inkscape:highlight-color="#00d20b"
     transform="matrix(1.3031273,0,0,1.3031273,4.5066475,10.822727)"
     style="stroke-width:0.537169;stroke-dasharray:none">
    <circle
       style="fill:#ccff42;stroke:#000000;stroke-width:0.537169;stroke-linecap:round;stroke-linejoin:round;stroke-miterlimit:5.1;stroke-dasharray:none;stroke-dashoffset:2.58;stroke-opacity:1;paint-order:stroke markers fill"
       id="path23549"
       cx="50.613419"
       cy="7.9501982"
       r="2.6458333"
       inkscape:label="V1" />
    <circle
       style="fill:#ccff42;stroke:#000000;stroke-width:0.537169;stroke-linecap:round;stroke-linejoin:round;stroke-miterlimit:5.1;stroke-dasharray:none;stroke-dashoffset:2.58;stroke-opacity:1;paint-order:stroke markers fill"
       id="path23549-0"
       cx="76.416298"
       cy="11.434233"
       r="2.6458333"
       inkscape:label="V1" />
    <circle
       style="fill:#ccff42;stroke:#000000;stroke-width:0.537169;stroke-linecap:round;stroke-linejoin:round;stroke-miterlimit:5.1;stroke-dasharray:none;stroke-dashoffset:2.58;stroke-opacity:1;paint-order:stroke markers fill"
       id="path23549-9"
       cx="68.462471"
       cy="41.514156"
       r="2.6458333"
       inkscape:label="V1" />
    <circle
       style="fill:#ccff42;stroke:#000000;stroke-width:0.537169;stroke-linecap:round;stroke-linejoin:round;stroke-miterlimit:5.1;stroke-dasharray:none;stroke-dashoffset:2.58;stroke-opacity:1;paint-order:stroke markers fill"
       id="path23549-3"
       cx="45.757912"
       cy="40.068005"
       r="2.6458333"
       inkscape:label="V1" />
    <circle
       style="fill:#ccff42;stroke:#000000;stroke-width:0.537169;stroke-linecap:round;stroke-linejoin:round;stroke-miterlimit:5.1;stroke-dasharray:none;stroke-dashoffset:2.58;stroke-opacity:1;paint-order:stroke markers fill"
       id="path23549-6"
       cx="51.976357"
       cy="25.028046"
       r="2.6458333"
       inkscape:label="V1" />
  </g>
  <g
     inkscape:groupmode="layer"
     id="layer7-3"
     inkscape:label="Vertices"
     inkscape:highlight-color="#00d20b"
     transform="translate(45.349301,19.372991)"
     style="stroke-width:0.537169;stroke-dasharray:none" />
  <g
     inkscape:groupmode="layer"
     id="layer7-7"
     inkscape:label="Vertices"
     inkscape:highlight-color="#00d20b"
     transform="matrix(1.3031273,0,0,1.3031273,34.173596,52.676321)"
     style="stroke-width:0.537169;stroke-dasharray:none" />
  <g
     inkscape:groupmode="layer"
     id="layer7-35"
     inkscape:label="Vertices"
     inkscape:highlight-color="#00d20b"
     transform="translate(13.877855,59.513219)"
     style="stroke-width:0.537169;stroke-dasharray:none" />
  <g
     inkscape:groupmode="layer"
     id="layer7-9"
     inkscape:label="Vertices"
     inkscape:highlight-color="#00d20b"
     transform="matrix(1.3031273,0,0,1.3031273,-17.650642,32.888885)"
     style="stroke-width:0.537169;stroke-dasharray:none">
    <circle
       style="fill:#ccff42;stroke:#000000;stroke-width:0.537169;stroke-linecap:round;stroke-linejoin:round;stroke-miterlimit:5.1;stroke-dasharray:none;stroke-dashoffset:2.58;stroke-opacity:1;paint-order:stroke markers fill"
       id="path23549-1"
       cx="50.613419"
       cy="7.9501982"
       r="2.6458333"
       inkscape:label="V1" />
  </g>
  <g
     inkscape:groupmode="layer"
     id="layer7-2"
     inkscape:label="Vertices"
     inkscape:highlight-color="#00d20b"
     transform="translate(13.689403,36.710554)"
     style="stroke-width:0.537169;stroke-dasharray:none" />
  <g
     inkscape:groupmode="layer"
     id="layer8"
     inkscape:label="Texto"
     inkscape:highlight-color="#5a74c9"
     style="display:inline">
    <text
       xml:space="preserve"
       style="font-size:4.23333px;line-height:1.25;font-family:sans-serif;stroke-width:0.264583"
       x="47.213406"
       y="66.420471"
       id="text1337"><tspan
         sodipodi:role="line"
         id="tspan1335"
         style="stroke-width:0.264583"
         x="47.213406"
         y="66.420471">$C$</tspan><tspan
         sodipodi:role="line"
         style="stroke-width:0.264583"
         x="47.213406"
         y="71.712135"
         id="tspan1339" /></text>
    <text
       xml:space="preserve"
       style="font-size:4.23333px;line-height:1.25;font-family:sans-serif;stroke-width:0.264583"
       x="115.97992"
       y="35.195633"
       id="text1398"><tspan
         sodipodi:role="line"
         id="tspan1396"
         style="stroke-width:0.264583"
         x="115.97992"
         y="35.195633">$P_4$</tspan></text>
    <text
       xml:space="preserve"
       style="font-size:4.23333px;line-height:1.25;font-family:sans-serif;stroke-width:0.264583"
       x="78.338875"
       y="44.518105"
       id="text1478"><tspan
         sodipodi:role="line"
         id="tspan1476"
         style="stroke-width:0.264583"
         x="78.338875"
         y="44.518105">$x (= v_{xy})$</tspan></text>
    <text
       xml:space="preserve"
       style="font-size:4.23333px;line-height:1.25;font-family:sans-serif;stroke-width:0.264583"
       x="101.90862"
       y="26.966324"
       id="text1532"><tspan
         sodipodi:role="line"
         id="tspan1530"
         style="stroke-width:0.264583"
         x="101.90862"
         y="26.966324">$x_5$</tspan></text>
    <text
       xml:space="preserve"
       style="font-size:4.23333px;line-height:1.25;font-family:sans-serif;stroke-width:0.264583"
       x="91.571716"
       y="65.996452"
       id="text1536"><tspan
         sodipodi:role="line"
         id="tspan1534"
         style="stroke-width:0.264583"
         x="91.571716"
         y="65.996452">$x_4$</tspan></text>
    <text
       xml:space="preserve"
       style="font-size:4.23333px;line-height:1.25;font-family:sans-serif;stroke-width:0.264583"
       x="61.919273"
       y="63.882996"
       id="text1540"><tspan
         sodipodi:role="line"
         id="tspan1538"
         style="stroke-width:0.264583"
         x="61.919273"
         y="63.882996">$x_3$</tspan></text>
    <text
       xml:space="preserve"
       style="font-size:4.23333px;line-height:1.25;font-family:sans-serif;stroke-width:0.264583"
       x="46.109932"
       y="44.593189"
       id="text1544"><tspan
         sodipodi:role="line"
         id="tspan1542"
         style="stroke-width:0.264583"
         x="46.109932"
         y="44.593189">$x_2$</tspan></text>
    <text
       xml:space="preserve"
       style="font-size:4.23333px;line-height:1.25;font-family:sans-serif;stroke-width:0.264583"
       x="68.626976"
       y="22.675365"
       id="text1548"><tspan
         sodipodi:role="line"
         id="tspan1546"
         style="stroke-width:0.264583"
         x="68.626976"
         y="22.675365">$x_1$</tspan></text>
    <text
       xml:space="preserve"
       style="font-size:4.23333px;line-height:1.25;font-family:sans-serif;stroke-width:0.264583"
       x="59.426708"
       y="34.926937"
       id="text1552"><tspan
         sodipodi:role="line"
         id="tspan1550"
         style="stroke-width:0.264583"
         x="59.426708"
         y="34.926937">$f_1$</tspan></text>
    <text
       xml:space="preserve"
       style="font-size:4.23333px;line-height:1.25;font-family:sans-serif;display:inline;stroke-width:0.264583"
       x="66.949432"
       y="55.332729"
       id="text1556"><tspan
         id="tspan1554"
         style="stroke-width:0.264583"
         x="66.949432"
         y="55.332729"
         sodipodi:role="line">$f$</tspan></text>
  </g>
</svg>
