<?xml version="1.0" encoding="UTF-8" standalone="no"?>
<!-- Created with Inkscape (http://www.inkscape.org/) -->

<svg
   width="210mm"
   height="297mm"
   viewBox="0 0 210 297"
   version="1.1"
   id="svg12165"
   inkscape:version="1.2.2 (732a01da63, 2022-12-09, custom)"
   sodipodi:docname="Dibujo 7.svg"
   xmlns:inkscape="http://www.inkscape.org/namespaces/inkscape"
   xmlns:sodipodi="http://sodipodi.sourceforge.net/DTD/sodipodi-0.dtd"
   xmlns="http://www.w3.org/2000/svg"
   xmlns:svg="http://www.w3.org/2000/svg">
  <sodipodi:namedview
     id="namedview12167"
     pagecolor="#959595"
     bordercolor="#000000"
     borderopacity="0.25"
     inkscape:showpageshadow="2"
     inkscape:pageopacity="0"
     inkscape:pagecheckerboard="0"
     inkscape:deskcolor="#d1d1d1"
     inkscape:document-units="mm"
     showgrid="true"
     inkscape:zoom="1.4142136"
     inkscape:cx="260.21529"
     inkscape:cy="136.82516"
     inkscape:window-width="1920"
     inkscape:window-height="1016"
     inkscape:window-x="0"
     inkscape:window-y="0"
     inkscape:window-maximized="1"
     inkscape:current-layer="layer8"
     showguides="true">
    <inkscape:grid
       type="xygrid"
       id="grid23485" />
  </sodipodi:namedview>
  <defs
     id="defs12162" />
  <g
     inkscape:label="Background"
     inkscape:groupmode="layer"
     id="layer1"
     sodipodi:insensitive="true"
     inkscape:highlight-color="#ffffff">
    <rect
       style="fill:#ffffff;fill-opacity:1;stroke:none;stroke-width:1.051;stroke-linecap:round;stroke-linejoin:round;stroke-miterlimit:2.7;stroke-dashoffset:5.5612;paint-order:stroke markers fill"
       id="rect12221"
       width="183.15909"
       height="87.849442"
       x="0"
       y="0"
       sodipodi:insensitive="true" />
  </g>
  <g
     inkscape:groupmode="layer"
     id="layer3"
     inkscape:label="Pintura - rellenos"
     style="fill:#ffff3e"
     inkscape:highlight-color="#def321">
    <path
       style="fill:#ff4141;fill-opacity:0.50319397;stroke:#ff4141;stroke-width:2.26771657;stroke-dasharray:none;stroke-dashoffset:0;stroke-opacity:0.50196081;paint-order:stroke markers fill"
       d="m 245.72924,239.95364 c -18.80363,-6.86344 -34.66919,-12.51802 -35.2568,-12.56573 -0.58761,-0.0477 -11.38239,4.62047 -23.98839,10.37374 -12.60599,5.75327 -23.20729,10.4605 -23.55844,10.4605 -0.35115,0 -1.41548,-0.83175 -2.36519,-1.84832 -2.08103,-2.22757 -5.04468,-3.84975 -7.0333,-3.84975 -1.43536,0 -1.45989,-0.32072 -1.45989,-19.08326 v -19.08326 l 3.09262,-0.82715 c 3.80072,-1.01654 8.01495,-5.39675 8.69867,-9.0413 l 0.47564,-2.5354 h 23.06914 c 23.00845,0 23.06914,0.004 23.06914,1.50561 0,2.69527 3.07958,7.11656 6.25184,8.97562 2.58659,1.51585 3.71954,1.74688 7.29737,1.48809 5.49135,-0.39721 8.98133,-3.01937 11.02371,-8.28254 l 1.42452,-3.67094 22.87715,-0.008 22.87715,-0.008 0.40564,2.49967 c 1.6815,10.36189 16.93905,13.09423 22.98888,4.11689 5.59442,-8.30158 -0.72285,-20.1495 -10.74361,-20.1495 -4.21178,0 -8.62702,2.48018 -10.69394,6.00712 -0.97382,1.6617 -1.77058,3.71427 -1.77058,4.56127 v 1.54001 h -23.12096 -23.12095 l -0.75903,-2.8188 c -2.31507,-8.59753 -13.73032,-12.11988 -20.37395,-6.28669 -2.77842,2.43949 -4.56324,5.42991 -4.56324,7.6456 0,1.44151 -0.28924,1.45989 -22.98123,1.45989 h -22.98122 l -1.24527,-3.50615 c -1.42735,-4.01878 -4.31277,-6.76502 -8.39197,-7.98718 l -2.82835,-0.8474 0.18948,-18.90786 0.18948,-18.90786 2.23316,-0.45642 c 5.08218,-1.03874 9.51911,-6.72813 9.51911,-12.20622 0,-2.43633 0.13758,-2.57395 3.38322,-3.38415 1.86078,-0.4645 26.91012,-6.91724 55.6652,-14.33942 28.75508,-7.42218 52.34661,-13.410383 52.42562,-13.307117 0.079,0.103266 15.60883,20.823427 34.5107,46.044807 l 34.36704,45.85704 -10.93499,11.12365 c -31.63113,32.17686 -52.31925,52.78735 -52.95797,52.75924 -0.39424,-0.0173 -16.10158,-5.64708 -34.90521,-12.51052 z"
       id="path1717"
       transform="scale(0.26458333)" />
    <path
       style="fill:#ff4141;fill-opacity:0.50319397;stroke:#ff4141;stroke-width:2.26771657;stroke-dasharray:none;stroke-dashoffset:0;stroke-opacity:0.50196081;paint-order:stroke markers fill"
       d="m 526.91919,254.81068 -39.32646,-0.19024 -0.76806,-2.85237 c -1.10225,-4.09343 -4.54049,-7.70694 -8.28641,-8.70882 l -3.10559,-0.83062 v -19.08326 c 0,-16.70748 0.13654,-19.08326 1.09676,-19.08326 1.8615,0 6.52557,-2.71031 8.09286,-4.70279 0.81919,-1.04143 1.82338,-3.13373 2.23155,-4.64956 l 0.74213,-2.75605 h 22.73737 22.73737 l 0.74213,2.75605 c 2.24469,8.33612 11.94789,12.00336 19.34597,7.31164 3.23333,-2.05052 5.60812,-5.68069 5.60812,-8.57275 0,-1.48135 0.17411,-1.49494 19.15172,-1.49494 h 19.15172 l 0.47052,2.50814 c 0.5741,3.06017 4.192,7.33485 7.31079,8.63797 8.55754,3.57557 18.05721,-2.61229 18.00289,-11.72667 -0.018,-3.02711 -2.00838,-7.76873 -4.00532,-9.54196 -2.02248,-1.79591 -6.28709,-3.4126 -8.95488,-3.39475 -5.42057,0.0362 -11.44137,4.72266 -12.36027,9.62082 l -0.46373,2.47194 h -19.15172 c -18.83155,0 -19.15172,-0.0244 -19.15172,-1.45989 0,-3.28537 -4.19162,-8.42964 -8.05928,-9.89094 -6.87532,-2.59768 -14.96803,1.64119 -16.96902,8.88818 l -0.68539,2.48228 -22.90765,-0.18788 -22.90766,-0.18788 -0.62006,-2.62285 c -0.80593,-3.40903 -4.75368,-7.42797 -8.35678,-8.50749 l -2.85125,-0.85426 0.18948,-18.82523 0.18948,-18.82524 2.84903,-0.97211 c 5.58406,-1.90532 9.55863,-8.56597 8.49494,-14.23596 -0.91133,-4.85776 -6.20822,-10.30015 -10.02479,-10.30015 h -1.67531 V 91.908823 68.787869 l 2.72415,-0.733537 c 6.29992,-1.696394 10.4172,-9.216281 8.64849,-15.795778 -1.05103,-3.909773 -5.36604,-8.198595 -8.91933,-8.865196 -9.26684,-1.73847 -15.98989,3.572562 -15.98357,12.626591 0.004,5.74072 4.04807,11.003026 9.43477,12.276934 l 1.95871,0.463219 v 23.134837 23.134841 h -1.67531 c -2.24806,0 -6.11294,2.69176 -8.1013,5.64228 -1.23012,1.82539 -1.61953,3.41395 -1.61953,6.60681 0,6.33321 2.74686,10.40906 8.30151,12.318 l 2.7385,0.94113 0.18948,18.82524 0.18948,18.82523 -2.68238,0.83847 c -1.47532,0.46116 -3.37838,1.42585 -4.22904,2.14375 -2.16533,1.82742 -4.50172,5.84991 -4.50489,7.75592 l -0.003,1.60259 H 438.91853 415.9373 l -1.24527,-3.50615 c -0.6849,-1.92837 -2.16063,-4.27636 -3.27941,-5.21775 l -2.03414,-1.71161 22.7416,-73.6478 c 12.50788,-40.506283 22.81084,-73.717041 22.89549,-73.801681 0.0846,-0.08464 42.31117,12.521864 93.83673,28.014454 l 93.68284,28.168347 15.59209,42.12592 c 8.57565,23.16926 16.16498,43.63754 16.86518,45.48507 l 1.27309,3.35914 -41.12088,37.74838 -41.12088,37.74838 -13.88905,-0.14649 c -7.63897,-0.0806 -31.58595,-0.2321 -53.2155,-0.33673 z"
       id="path2438"
       transform="scale(0.26458333)" />
  </g>
  <circle
     style="fill:#19aeff;fill-opacity:0.47855213;stroke:#0084c8;stroke-width:1;stroke-dasharray:2, 2;stroke-dashoffset:0;stroke-opacity:1;paint-order:stroke markers fill"
     id="path2577"
     cx="125.60188"
     cy="50.419552"
     r="11.010809" />
  <g
     inkscape:groupmode="layer"
     id="layer9"
     inkscape:label="Elipses - conjuntos" />
  <g
     inkscape:groupmode="layer"
     id="layer6"
     inkscape:label="Aristas"
     inkscape:highlight-color="#4c4c4c">
    <path
       style="fill:none;fill-rule:evenodd;stroke:#000000;stroke-width:0.665;stroke-linecap:butt;stroke-linejoin:miter;stroke-dasharray:none;stroke-opacity:1"
       d="m 7.181973,50.626194 10.846776,0"
       id="path525"
       inkscape:connector-type="polyline"
       inkscape:connector-curvature="0"
       inkscape:connection-start="#path23549"
       inkscape:connection-end="#path23549-3" />
    <path
       style="fill:none;fill-rule:evenodd;stroke:#000000;stroke-width:0.665;stroke-linecap:butt;stroke-linejoin:miter;stroke-dasharray:none;stroke-opacity:1"
       d="m 24.059363,50.626194 12.963443,0"
       id="path527"
       inkscape:connector-type="polyline"
       inkscape:connector-curvature="0"
       inkscape:connection-start="#path23549-3"
       inkscape:connection-end="#path23549-6" />
    <path
       style="fill:none;fill-rule:evenodd;stroke:#000000;stroke-width:0.665;stroke-linecap:butt;stroke-linejoin:miter;stroke-dasharray:none;stroke-opacity:1"
       d="m 43.05342,50.626194 12.963446,0"
       id="path529"
       inkscape:connector-type="polyline"
       inkscape:connector-curvature="0"
       inkscape:connection-start="#path23549-6"
       inkscape:connection-end="#path23549-7" />
    <path
       style="fill:none;fill-rule:evenodd;stroke:#000000;stroke-width:0.665;stroke-linecap:butt;stroke-linejoin:miter;stroke-dasharray:none;stroke-opacity:1"
       d="m 62.04748,50.626194 12.963435,0"
       id="path531"
       inkscape:connector-type="polyline"
       inkscape:connector-curvature="0"
       inkscape:connection-start="#path23549-7"
       inkscape:connection-end="#path23549-5" />
    <path
       style="fill:none;fill-rule:evenodd;stroke:#000000;stroke-width:0.665;stroke-linecap:butt;stroke-linejoin:miter;stroke-dasharray:none;stroke-opacity:1"
       d="m 40.038113,36.762587 v 10.8483"
       id="path533"
       inkscape:connector-type="polyline"
       inkscape:connector-curvature="0"
       inkscape:connection-start="#path23549-35"
       inkscape:connection-end="#path23549-6" />
    <path
       style="fill:none;fill-rule:evenodd;stroke:#000000;stroke-width:0.665;stroke-linecap:butt;stroke-linejoin:miter;stroke-dasharray:none;stroke-opacity:1"
       d="M 40.038113,64.489797 V 53.641501"
       id="path535"
       inkscape:connector-type="polyline"
       inkscape:connector-curvature="0"
       inkscape:connection-start="#path23549-62"
       inkscape:connection-end="#path23549-6" />
    <path
       style="fill:none;fill-rule:evenodd;stroke:#000000;stroke-width:0.665;stroke-linecap:butt;stroke-linejoin:miter;stroke-dasharray:none;stroke-opacity:1"
       d="m 109.54661,50.626194 h 12.96344"
       id="path537"
       inkscape:connector-type="polyline"
       inkscape:connector-curvature="0"
       inkscape:connection-start="#path23549-9"
       inkscape:connection-end="#path23549-1" />
    <path
       style="fill:none;fill-rule:evenodd;stroke:#000000;stroke-width:0.665;stroke-linecap:butt;stroke-linejoin:miter;stroke-dasharray:none;stroke-opacity:1"
       d="m 125.52536,53.641501 0,10.848296"
       id="path539"
       inkscape:connector-type="polyline"
       inkscape:connector-curvature="0"
       inkscape:connection-start="#path23549-1"
       inkscape:connection-end="#path23549-60" />
    <path
       style="fill:none;fill-rule:evenodd;stroke:#000000;stroke-width:0.665;stroke-linecap:butt;stroke-linejoin:miter;stroke-dasharray:none;stroke-opacity:1"
       d="m 128.54067,50.626194 h 12.9634"
       id="path541"
       inkscape:connector-type="polyline"
       inkscape:connector-curvature="0"
       inkscape:connection-start="#path23549-1"
       inkscape:connection-end="#path23549-2" />
    <path
       style="fill:none;fill-rule:evenodd;stroke:#000000;stroke-width:0.665;stroke-linecap:butt;stroke-linejoin:miter;stroke-dasharray:none;stroke-opacity:1"
       d="m 147.53469,50.626194 10.84681,0"
       id="path543"
       inkscape:connector-type="polyline"
       inkscape:connector-curvature="0"
       inkscape:connection-start="#path23549-2"
       inkscape:connection-end="#path23549-70" />
    <path
       style="fill:none;fill-rule:evenodd;stroke:#000000;stroke-width:0.665;stroke-linecap:butt;stroke-linejoin:miter;stroke-dasharray:none;stroke-opacity:1"
       d="m 125.52536,47.610887 v -10.8483"
       id="path545"
       inkscape:connector-type="polyline"
       inkscape:connector-curvature="0"
       inkscape:connection-start="#path23549-1"
       inkscape:connection-end="#path23549-93" />
    <path
       style="fill:none;fill-rule:evenodd;stroke:#000000;stroke-width:0.665;stroke-linecap:butt;stroke-linejoin:miter;stroke-dasharray:none;stroke-opacity:1"
       d="M 125.52536,30.731973 V 17.767004"
       id="path547"
       inkscape:connector-type="polyline"
       inkscape:connector-curvature="0"
       inkscape:connection-start="#path23549-93"
       inkscape:connection-end="#path23549-626" />
    <path
       style="fill:none;fill-opacity:0.503194;stroke:#dc0000;stroke-width:0.665;stroke-dasharray:3.99000012,1.33;stroke-dashoffset:0;stroke-opacity:1;paint-order:stroke markers fill"
       d="M 40.361801,33.56409 73.208636,25.088741 91.827711,49.899508 74.656275,67.291683 55.81206,60.446577 40.706476,67.332751"
       id="path605" />
    <path
       style="fill:none;fill-opacity:0.503194;stroke:#dc0000;stroke-width:0.665;stroke-dasharray:3.99000012,1.33;stroke-dashoffset:0;stroke-opacity:1;paint-order:stroke markers fill"
       d="m 106.94063,50.728195 13.1292,-42.5358844 50.01608,15.0410494 9.04883,24.442624 -21.98223,20.13858 -31.73948,-0.279409"
       id="path2112" />
    <path
       style="fill:none;fill-opacity:0.478552;stroke:#ff6600;stroke-width:0.665;stroke-dasharray:1.33,0.665;stroke-dashoffset:0;stroke-opacity:1;paint-order:stroke markers fill"
       d="m 134.78351,50.399806 -5.96274,-2.844442 0.9857,-4.378561 -4.19527,0.230413"
       id="path2737" />
  </g>
  <g
     inkscape:groupmode="layer"
     id="layer7"
     inkscape:label="Vertices"
     inkscape:highlight-color="#00d20b">
    <circle
       style="fill:#000000;fill-opacity:1;stroke:none;stroke-width:0.665;stroke-dasharray:none;stroke-dashoffset:0;stroke-opacity:0.501961;paint-order:stroke markers fill"
       id="path2494-1"
       cx="134.1333"
       cy="50.536839"
       r="1.3426661" />
    <circle
       style="fill:#ccff42;stroke:#000000;stroke-width:0.665;stroke-linecap:round;stroke-linejoin:round;stroke-miterlimit:5.1;stroke-dasharray:none;stroke-dashoffset:2.58;stroke-opacity:1;paint-order:stroke markers fill"
       id="path23549"
       cx="4.166666"
       cy="50.626194"
       r="3.0153069"
       inkscape:label="V1" />
    <circle
       style="fill:#ccff42;stroke:#000000;stroke-width:0.665;stroke-linecap:round;stroke-linejoin:round;stroke-miterlimit:5.1;stroke-dasharray:none;stroke-dashoffset:2.58;stroke-opacity:1;paint-order:stroke markers fill"
       id="path23549-3"
       cx="21.044056"
       cy="50.626194"
       r="3.0153069"
       inkscape:label="V1" />
    <circle
       style="fill:#ccff42;stroke:#000000;stroke-width:0.665;stroke-linecap:round;stroke-linejoin:round;stroke-miterlimit:5.1;stroke-dasharray:none;stroke-dashoffset:2.58;stroke-opacity:1;paint-order:stroke markers fill"
       id="path23549-6"
       cx="40.038113"
       cy="50.626194"
       r="3.0153069"
       inkscape:label="V1" />
    <circle
       style="fill:#ccff42;stroke:#000000;stroke-width:0.665;stroke-linecap:round;stroke-linejoin:round;stroke-miterlimit:5.1;stroke-dasharray:none;stroke-dashoffset:2.58;stroke-opacity:1;paint-order:stroke markers fill"
       id="path23549-7"
       cx="59.032173"
       cy="50.626194"
       r="3.0153069"
       inkscape:label="V1" />
    <circle
       style="fill:#ccff42;stroke:#000000;stroke-width:0.665;stroke-linecap:round;stroke-linejoin:round;stroke-miterlimit:5.1;stroke-dasharray:none;stroke-dashoffset:2.58;stroke-opacity:1;paint-order:stroke markers fill"
       id="path23549-5"
       cx="78.026222"
       cy="50.626194"
       r="3.0153069"
       inkscape:label="V1" />
    <circle
       style="fill:#ccff42;stroke:#000000;stroke-width:0.665;stroke-linecap:round;stroke-linejoin:round;stroke-miterlimit:5.1;stroke-dasharray:none;stroke-dashoffset:2.58;stroke-opacity:1;paint-order:stroke markers fill"
       id="path23549-35"
       cx="40.038113"
       cy="33.74728"
       r="3.0153069"
       inkscape:label="V1" />
    <circle
       style="fill:#ccff42;stroke:#000000;stroke-width:0.665;stroke-linecap:round;stroke-linejoin:round;stroke-miterlimit:5.1;stroke-dasharray:none;stroke-dashoffset:2.58;stroke-opacity:1;paint-order:stroke markers fill"
       id="path23549-62"
       cx="40.038113"
       cy="67.505104"
       r="3.0153069"
       inkscape:label="V1" />
    <circle
       style="fill:#ccff42;stroke:#000000;stroke-width:0.665;stroke-linecap:round;stroke-linejoin:round;stroke-miterlimit:5.1;stroke-dasharray:none;stroke-dashoffset:2.58;stroke-opacity:1;paint-order:stroke markers fill"
       id="path23549-9"
       cx="106.5313"
       cy="50.626194"
       r="3.0153069"
       inkscape:label="V1" />
    <circle
       style="fill:#ccff42;stroke:#000000;stroke-width:0.665;stroke-linecap:round;stroke-linejoin:round;stroke-miterlimit:5.1;stroke-dasharray:none;stroke-dashoffset:2.58;stroke-opacity:1;paint-order:stroke markers fill"
       id="path23549-1"
       cx="125.52536"
       cy="50.626194"
       r="3.0153069"
       inkscape:label="V1" />
    <circle
       style="fill:#ccff42;stroke:#000000;stroke-width:0.665;stroke-linecap:round;stroke-linejoin:round;stroke-miterlimit:5.1;stroke-dasharray:none;stroke-dashoffset:2.58;stroke-opacity:1;paint-order:stroke markers fill"
       id="path23549-2"
       cx="144.51938"
       cy="50.626194"
       r="3.0153069"
       inkscape:label="V1" />
    <circle
       style="fill:#ccff42;stroke:#000000;stroke-width:0.665;stroke-linecap:round;stroke-linejoin:round;stroke-miterlimit:5.1;stroke-dasharray:none;stroke-dashoffset:2.58;stroke-opacity:1;paint-order:stroke markers fill"
       id="path23549-70"
       cx="161.3968"
       cy="50.626194"
       r="3.0153069"
       inkscape:label="V1" />
    <circle
       style="fill:#ccff42;stroke:#000000;stroke-width:0.665;stroke-linecap:round;stroke-linejoin:round;stroke-miterlimit:5.1;stroke-dasharray:none;stroke-dashoffset:2.58;stroke-opacity:1;paint-order:stroke markers fill"
       id="path23549-93"
       cx="125.52536"
       cy="33.74728"
       r="3.0153069"
       inkscape:label="V1" />
    <circle
       style="fill:#ccff42;stroke:#000000;stroke-width:0.665;stroke-linecap:round;stroke-linejoin:round;stroke-miterlimit:5.1;stroke-dasharray:none;stroke-dashoffset:2.58;stroke-opacity:1;paint-order:stroke markers fill"
       id="path23549-60"
       cx="125.52536"
       cy="67.505104"
       r="3.0153069"
       inkscape:label="V1" />
    <circle
       style="fill:#ccff42;stroke:#000000;stroke-width:0.665;stroke-linecap:round;stroke-linejoin:round;stroke-miterlimit:5.1;stroke-dasharray:none;stroke-dashoffset:2.58;stroke-opacity:1;paint-order:stroke markers fill"
       id="path23549-626"
       cx="125.52536"
       cy="14.751698"
       r="3.0153069"
       inkscape:label="V1" />
    <circle
       style="fill:#000000;fill-opacity:1;stroke:none;stroke-width:0.665;stroke-dasharray:none;stroke-dashoffset:0;stroke-opacity:0.501961;paint-order:stroke markers fill"
       id="path2494"
       cx="125.50326"
       cy="43.550751"
       r="1.3426661" />
  </g>
  <g
     inkscape:groupmode="layer"
     id="layer8"
     inkscape:label="Texto"
     inkscape:highlight-color="#5a74c9">
    <text
       xml:space="preserve"
       style="font-size:4.23333px;line-height:1.25;font-family:sans-serif;stroke-width:0.264583"
       x="82.421272"
       y="34.908684"
       id="text3770"><tspan
         sodipodi:role="line"
         id="tspan3768"
         style="stroke-width:0.264583"
         x="82.421272"
         y="34.908684">$P$</tspan></text>
    <text
       xml:space="preserve"
       style="font-size:4.23333px;line-height:1.25;font-family:sans-serif;stroke-width:0.264583"
       x="148.53214"
       y="14.905212"
       id="text3774"><tspan
         sodipodi:role="line"
         id="tspan3772"
         style="stroke-width:0.264583"
         x="148.53214"
         y="14.905212">$P'$</tspan></text>
    <text
       xml:space="preserve"
       style="font-size:4.23333px;line-height:1.25;font-family:sans-serif;stroke-width:0.264583"
       x="136.84828"
       y="82.949448"
       id="text3828"><tspan
         sodipodi:role="line"
         id="tspan3826"
         style="stroke-width:0.264583"
         x="136.84828"
         y="82.949448">$\tilde H'$</tspan></text>
    <text
       xml:space="preserve"
       style="font-size:4.23333px;line-height:1.25;font-family:sans-serif;stroke-width:0.264583"
       x="38.503368"
       y="82.190704"
       id="text3832"><tspan
         sodipodi:role="line"
         id="tspan3830"
         style="stroke-width:0.264583"
         x="38.503368"
         y="82.190704">$\tilde H$</tspan></text>
    <text
       xml:space="preserve"
       style="font-size:4.23333px;line-height:1.25;font-family:sans-serif;stroke-width:0.264583"
       x="37.992153"
       y="51.738789"
       id="text3836"><tspan
         sodipodi:role="line"
         id="tspan3834"
         style="stroke-width:0.264583"
         x="37.992153"
         y="51.738789">$x$</tspan></text>
    <text
       xml:space="preserve"
       style="font-size:4.23333px;line-height:1.25;font-family:sans-serif;stroke-width:0.264583"
       x="38.19532"
       y="35.190212"
       id="text3840"><tspan
         sodipodi:role="line"
         id="tspan3838"
         style="stroke-width:0.264583"
         x="38.19532"
         y="35.190212">$y$</tspan></text>
    <text
       xml:space="preserve"
       style="font-size:4.23333px;line-height:1.25;font-family:sans-serif;stroke-width:0.264583"
       x="38.140511"
       y="68.88736"
       id="text3844"><tspan
         sodipodi:role="line"
         id="tspan3842"
         style="stroke-width:0.264583"
         x="38.140511"
         y="68.88736">$z$</tspan></text>
    <text
       xml:space="preserve"
       style="font-size:4.23333px;line-height:1.25;font-family:sans-serif;stroke-width:0.264583"
       x="75.780411"
       y="52.020149"
       id="text3848"><tspan
         sodipodi:role="line"
         id="tspan3846"
         style="stroke-width:0.264583"
         x="75.780411"
         y="52.020149">$v$</tspan></text>
    <text
       xml:space="preserve"
       style="font-size:4.23333px;line-height:1.25;font-family:sans-serif;stroke-width:0.264583"
       x="2.521312"
       y="51.823563"
       id="text3852"><tspan
         sodipodi:role="line"
         id="tspan3850"
         style="stroke-width:0.264583"
         x="2.521312"
         y="51.823563">$u$</tspan></text>
    <text
       xml:space="preserve"
       style="font-size:4.23333px;line-height:1.25;font-family:sans-serif;stroke-width:0.264583"
       x="104.70389"
       y="51.954376"
       id="text3856"><tspan
         sodipodi:role="line"
         id="tspan3854"
         style="stroke-width:0.264583"
         x="104.70389"
         y="51.954376">$y'$</tspan></text>
    <text
       xml:space="preserve"
       style="font-size:4.23333px;line-height:1.25;font-family:sans-serif;stroke-width:0.264583"
       x="123.26001"
       y="68.611115"
       id="text3860"><tspan
         sodipodi:role="line"
         id="tspan3858"
         style="stroke-width:0.264583"
         x="123.26001"
         y="68.611115">$z'$</tspan></text>
    <text
       xml:space="preserve"
       style="font-size:4.23333px;line-height:1.25;font-family:sans-serif;stroke-width:0.264583"
       x="123.66341"
       y="16.02166"
       id="text3864"><tspan
         sodipodi:role="line"
         id="tspan3862"
         style="stroke-width:0.264583"
         x="123.66341"
         y="16.02166">$u'$</tspan></text>
    <text
       xml:space="preserve"
       style="font-size:4.23333px;line-height:1.25;font-family:sans-serif;stroke-width:0.264583"
       x="159.76787"
       y="52.015034"
       id="text3868"><tspan
         sodipodi:role="line"
         id="tspan3866"
         style="stroke-width:0.264583"
         x="159.76787"
         y="52.015034">$v'$</tspan></text>
    <text
       xml:space="preserve"
       style="font-size:4.23333px;line-height:1.25;font-family:sans-serif;stroke-width:0.264583"
       x="123.69704"
       y="52.06546"
       id="text3872"><tspan
         sodipodi:role="line"
         id="tspan3870"
         style="stroke-width:0.264583"
         x="123.69704"
         y="52.06546">$x'$</tspan></text>
    <text
       xml:space="preserve"
       style="font-size:4.23333px;line-height:1.25;font-family:sans-serif;stroke-width:0.264583"
       x="135.34842"
       y="41.979481"
       id="text3876"><tspan
         sodipodi:role="line"
         id="tspan3874"
         style="stroke-width:0.264583"
         x="135.34842"
         y="41.979481">$B$</tspan></text>
  </g>
</svg>
